<svg width="134" height="48" viewBox="0 0 134 48" fill="none" xmlns="http://www.w3.org/2000/svg">
<path d="M0 10.7412C0 9.9997 0.601128 9.39856 1.34266 9.39856H106.741V42.965H1.34266C0.601128 42.965 0 42.3638 0 41.6223L0 10.7412Z" fill="#7879EB"/>
<path d="M131.9 40.7956C132.588 41.6774 131.96 42.965 130.842 42.965H101.371C100.629 42.965 100.028 42.3639 100.028 41.6224V3.89951C100.028 2.62254 101.643 2.06662 102.429 3.07289L131.9 40.7956Z" fill="#7879EB"/>
<path d="M9.46306 18.9315H5.75732V15.7091H16.7134V18.9315H13.0077V38.2657H9.46306V18.9315ZM19.6896 15.7091H24.4909L28.1644 38.2657H24.6198L23.9753 33.7866V33.8511H19.9474L19.3029 38.2657H16.0161L19.6896 15.7091ZM23.5564 30.7898L21.9775 19.6404H21.913L20.3663 30.7898H23.5564ZM34.3979 38.588C32.6791 38.588 31.3794 38.1046 30.4986 37.1379C29.6179 36.1497 29.1775 34.7426 29.1775 32.9166V31.6276H32.5287V33.1744C32.5287 34.6352 33.141 35.3656 34.3657 35.3656C34.9672 35.3656 35.4183 35.1937 35.7191 34.85C36.0413 34.4848 36.2024 33.9048 36.2024 33.1099C36.2024 32.1647 35.9876 31.3376 35.5579 30.6287C35.1283 29.8983 34.3334 29.0282 33.1732 28.0186C31.7124 26.7296 30.692 25.5696 30.112 24.5384C29.5319 23.4857 29.2419 22.3042 29.2419 20.9938C29.2419 19.2107 29.693 17.8358 30.5953 16.8691C31.4976 15.8809 32.808 15.3868 34.5268 15.3868C36.2239 15.3868 37.5021 15.8809 38.3614 16.8691C39.2422 17.8358 39.6826 19.2322 39.6826 21.0582V21.9927H36.3313V20.8327C36.3313 20.0593 36.1809 19.5007 35.8802 19.157C35.5794 18.7918 35.139 18.6092 34.559 18.6092C33.3773 18.6092 32.7865 19.3289 32.7865 20.7682C32.7865 21.5845 33.0014 22.3472 33.431 23.0561C33.8823 23.765 34.6879 24.6243 35.848 25.634C37.3302 26.923 38.3507 28.0938 38.9092 29.1464C39.4678 30.199 39.747 31.4343 39.747 32.8521C39.747 34.6996 39.2852 36.1175 38.3614 37.1057C37.4591 38.0939 36.138 38.588 34.3979 38.588ZM41.7791 15.7091H45.3238V25.2151L49.8351 15.7091H53.3797L49.1584 23.9906L53.4441 38.2657H49.7384L46.7416 28.2119L45.3238 31.0798V38.2657H41.7791V15.7091ZM55.1218 15.7091H64.4989V18.9315H58.6664V25.2151H63.2422V28.4375H58.6664V38.2657H55.1218V15.7091ZM66.1987 15.7091H69.7433V35.0433H75.5758V38.2657H66.1987V15.7091ZM82.2734 38.588C80.5333 38.588 79.2013 38.0939 78.2776 37.1057C77.3539 36.1175 76.892 34.7211 76.892 32.9166V21.0582C76.892 19.2537 77.3539 17.8573 78.2776 16.8691C79.2013 15.8809 80.5333 15.3868 82.2734 15.3868C84.0134 15.3868 85.3454 15.8809 86.2691 16.8691C87.1928 17.8573 87.6547 19.2537 87.6547 21.0582V32.9166C87.6547 34.7211 87.1928 36.1175 86.2691 37.1057C85.3454 38.0939 84.0134 38.588 82.2734 38.588ZM82.2734 35.3656C83.4979 35.3656 84.1101 34.6244 84.1101 33.1421V20.8327C84.1101 19.3504 83.4979 18.6092 82.2734 18.6092C81.0489 18.6092 80.4366 19.3504 80.4366 20.8327V33.1421C80.4366 34.6244 81.0489 35.3656 82.2734 35.3656ZM89.2142 15.7091H92.6299L94.2089 33.0455H94.2733L95.949 15.7091H99.8158L101.491 33.0455H101.556L103.135 15.7091H106.196L103.908 38.2657H99.4936L97.8824 23.0561H97.818L96.2068 38.2657H91.5021L89.2142 15.7091ZM107.171 34.85H110.587V38.2657H107.171V34.85Z" fill="white"/>
</svg>
